<?xml version="1.0" encoding="UTF-8"?>
<svg id="Capa_1" xmlns="http://www.w3.org/2000/svg" version="1.1" xmlns:xlink="http://www.w3.org/1999/xlink" viewBox="0 0 510.2 212.6">
  <!-- Generator: Adobe Illustrator 30.1.0, SVG Export Plug-In . SVG Version: 2.1.1 Build 136)  -->
  <defs>
    <style>
      .st0, .st1 {
        fill: none;
      }

      .st0, .st2 {
        stroke: #fff;
        stroke-miterlimit: 10;
        stroke-width: 4.1px;
      }

      .st3, .st2 {
        fill: #fff;
      }

      .st4 {
        fill: #fbfbfb;
      }

      .st5 {
        clip-path: url(#clippath);
      }
    </style>
    <clipPath id="clippath">
      <circle class="st1" cx="101" cy="105.6" r="96.1"/>
    </clipPath>
  </defs>
  <g class="st5">
    <g>
      <path class="st4" d="M383.7,67.6c.8-.5,1-.9.3-.9h-188c-1,0-1.9.4-2.7.9l-327.6,189.1c-.8.5-1,.9-.3.9H53.4c1,0,1.9-.4,2.7-.9L383.7,67.6ZM215.7,74.4c-.2.2-1.1.7-2,1.2l-7.3,4.2-3.1,1.8-7.3,4.2c-.8.5-1.8,1-2.1,1.2s-2,.8-3.1,1.1l-3.5,1.2c-1.1.4-2.2.7-2.6.8-.7,0-1.4.2-2.1.2h-18.3c-.1,0,0-.5.1-.9l.5-1.2c.1-.3.3-.6.5-.9.7-.5,1.4-1,2.2-1.4l7.3-4.2,3.1-1.8,7.3-4.2c.8-.5,1.8-1,2.1-1.2s2-.8,3.1-1.1l3.5-1.2c1.1-.4,2.2-.7,2.5-.8.7,0,1.4-.2,2.1-.2h18.3c.1,0,0,.5-.1.9l-.5,1.2c-.2.4-.5.8-.8,1.1h.2ZM245.7,74.4c-.2.2-1.1.7-2,1.2l-7.3,4.2-3.1,1.8-7.3,4.2c-.8.5-1.8,1-2.1,1.2s-2,.8-3.1,1.1l-3.5,1.2c-1.1.4-2.2.7-2.6.8-.7,0-1.4.2-2.1.2h-18.3c-.1,0,0-.5.1-.9l.5-1.2c.1-.3.3-.6.5-.9.7-.5,1.4-1,2.2-1.4l7.3-4.2,3.1-1.8,7.3-4.2c.8-.5,1.8-1,2.1-1.2s2-.8,3.1-1.1l3.5-1.2c1.1-.4,2.2-.7,2.6-.8.7,0,1.4-.2,2.1-.2h18.3c.1,0,0,.5-.1.9l-.5,1.2c-.2.4-.5.8-.8,1.1h.1ZM275.7,74.4c-.2.2-1.1.7-2,1.2l-7.3,4.2-3.1,1.8-7.3,4.2c-.8.5-1.8,1-2.1,1.2s-2,.8-3.1,1.1l-3.5,1.2c-1.1.4-2.2.7-2.6.8-.7,0-1.4.2-2.1.2h-18.3c-.1,0,0-.5.1-.9l.5-1.2c.1-.3.3-.6.5-.9.7-.5,1.4-1,2.2-1.4l7.3-4.2,3.1-1.8,7.3-4.2c.8-.5,1.8-1,2.1-1.2s2-.8,3.1-1.1l3.5-1.2c1.1-.4,2.2-.7,2.6-.8.7,0,1.4-.2,2.1-.2h18.3c.1,0,0,.5-.1.9l-.5,1.2c-.2.4-.5.8-.8,1.1h0ZM305.7,74.4c-.2.2-1.1.7-2,1.2l-7.3,4.2-3.1,1.8-7.3,4.2c-.8.5-1.8,1-2.1,1.2s-2,.8-3.1,1.1l-3.5,1.2c-1.1.4-2.2.7-2.6.8-.7,0-1.4.2-2.1.2h-18.3c-.1,0,0-.5.1-.9l.5-1.2c.1-.3.3-.6.5-.9.7-.5,1.4-1,2.2-1.4l7.3-4.2,3.1-1.8,7.3-4.2c.8-.5,1.8-1,2.1-1.2s2-.8,3.1-1.1l3.5-1.2c1.1-.4,2.2-.7,2.6-.8.7,0,1.4-.2,2.1-.2h18.3c.1,0,0,.5-.1.9l-.5,1.2c-.2.4-.5.8-.8,1.1h.1ZM335.9,74.4c-.2.2-1.1.7-2,1.2l-7.3,4.2-3.1,1.8-7.3,4.2c-.8.5-1.8,1-2.1,1.2s-2,.8-3.1,1.1l-3.5,1.2c-1.1.4-2.2.7-2.6.8-.7,0-1.4.2-2.1.2h-18.3c-.1,0,0-.5.1-.9l.5-1.2c.1-.3.3-.6.5-.9.7-.5,1.4-1,2.2-1.4l7.3-4.2,3.1-1.8,7.3-4.2c.8-.5,1.8-1,2.1-1.2s2-.8,3.1-1.1l3.5-1.2c1.1-.4,2.2-.7,2.5-.8.7,0,1.4-.2,2.1-.2h18.3c.1,0,0,.5-.1.9l-.5,1.2c-.2.4-.5.8-.8,1.1h.2ZM356.6,79.8l-3.1,1.8-7.2,4.2c-.8.5-1.8,1-2.1,1.2s-2,.8-3.1,1.1l-3.5,1.2c-1.1.4-2.2.7-2.6.8-.7,0-1.4.2-2.1.2h-18.3c-.1,0,0-.5.1-.9l.5-1.2c.1-.3.3-.6.5-.9.7-.5,1.4-1,2.2-1.4l7.3-4.2,3.1-1.8,7.3-4.2c.8-.5,1.8-1,2.1-1.2s2-.8,3.1-1.1l3.5-1.2c1.1-.4,2.2-.7,2.6-.8.7,0,1.4-.2,2.1-.2h18.3c.1,0,0,.5-.1.9l-.5,1.2c-.1.3-.3.6-.5.9-.7.5-1.4,1-2.2,1.4l-7.3,4.2h0ZM180.4,94.8c-.2.2-1.1.7-2,1.2l-7.3,4.2-3.1,1.8-7.3,4.2c-.8.5-1.8,1-2.1,1.2s-2,.8-3.1,1.1l-3.5,1.2c-1.1.4-2.2.7-2.6.8-.7,0-1.4.2-2.1.2h-18.3c-.1,0,0-.5.1-.9l.5-1.2c.1-.3.3-.6.5-.9.7-.5,1.4-1,2.2-1.4l7.3-4.2,3.1-1.8,7.3-4.2c.8-.5,1.8-1,2.1-1.2s2-.8,3.1-1.1l3.5-1.2c1.1-.4,2.2-.7,2.5-.8.7,0,1.4-.2,2.1-.2h18.3c.1,0,0,.5-.1.9l-.5,1.2c-.2.4-.5.8-.8,1.1h.2ZM210.5,94.8c-.2.2-1.1.7-2,1.2l-7.3,4.2-3.1,1.8-7.3,4.2c-.8.5-1.8,1-2.1,1.2s-2,.8-3.1,1.1l-3.5,1.2c-1.1.4-2.2.7-2.6.8-.7,0-1.4.2-2.1.2h-18.3c-.1,0,0-.5.1-.9l.5-1.2c.1-.3.3-.6.5-.9.7-.5,1.4-1,2.2-1.4l7.3-4.2,3.1-1.8,7.3-4.2c.8-.5,1.8-1,2.1-1.2s2-.8,3.1-1.1l3.5-1.2c1.1-.4,2.2-.7,2.6-.8.7,0,1.4-.2,2.1-.2h18.3c.1,0,0,.5-.1.9l-.5,1.2c-.2.4-.5.8-.8,1.1h.1ZM240.5,94.8c-.2.2-1.1.7-2,1.2l-7.3,4.2-3.1,1.8-7.3,4.2c-.8.5-1.8,1-2.1,1.2s-2,.8-3.1,1.1l-3.5,1.2c-1.1.4-2.2.7-2.6.8-.7,0-1.4.2-2.1.2h-18.3c-.1,0,0-.5.1-.9l.5-1.2c.1-.3.3-.6.5-.9.7-.5,1.4-1,2.2-1.4l7.3-4.2,3.1-1.8,7.3-4.2c.8-.5,1.8-1,2.1-1.2s2-.8,3.1-1.1l3.5-1.2c1.1-.4,2.2-.7,2.6-.8.7,0,1.4-.2,2.1-.2h18.3c.1,0,0,.5-.1.9l-.5,1.2c-.2.4-.5.8-.8,1.1h.1ZM270.5,94.8c-.2.2-1.1.7-2,1.2l-7.3,4.2-3.1,1.8-7.3,4.2c-.8.5-1.8,1-2.1,1.2s-2,.8-3.1,1.1l-3.5,1.2c-1.1.4-2.2.7-2.6.8-.7,0-1.4.2-2.1.2h-18.3c-.1,0,0-.5.1-.9l.5-1.2c.1-.3.3-.6.5-.9.7-.5,1.4-1,2.2-1.4l7.3-4.2,3.1-1.8,7.3-4.2c.8-.5,1.8-1,2.1-1.2s2-.8,3.1-1.1l3.5-1.2c1.1-.4,2.2-.7,2.6-.8.7,0,1.4-.2,2.1-.2h18.3c.1,0,0,.5-.1.9l-.5,1.2c-.2.4-.5.8-.8,1.1h0ZM300.6,94.8c-.2.2-1.1.7-2,1.2l-7.3,4.2-3.1,1.8-7.3,4.2c-.8.5-1.8,1-2.1,1.2s-2,.8-3.1,1.1l-3.5,1.2c-1.1.4-2.2.7-2.6.8-.7,0-1.4.2-2.1.2h-18.3c-.1,0,0-.5.1-.9l.5-1.2c.1-.3.3-.6.5-.9.7-.5,1.4-1,2.2-1.4l7.3-4.2,3.1-1.8,7.3-4.2c.8-.5,1.8-1,2.1-1.2s2-.8,3.1-1.1l3.5-1.2c1.1-.4,2.2-.7,2.5-.8.7,0,1.4-.2,2.1-.2h18.3c.1,0,0,.5-.1.9l-.5,1.2c-.2.4-.5.8-.8,1.1h.2ZM330.6,94.8c-.2.2-1.1.7-2,1.2l-7.3,4.2-3.1,1.8-7.3,4.2c-.8.5-1.8,1-2.1,1.2s-2,.8-3.1,1.1l-3.5,1.2c-1.1.4-2.2.7-2.6.8-.7,0-1.4.2-2.1.2h-18.3c-.1,0,0-.5.1-.9l.5-1.2c.1-.3.3-.6.5-.9.7-.5,1.4-1,2.2-1.4l7.3-4.2,3.1-1.8,7.3-4.2c.8-.5,1.8-1,2.1-1.2s2-.8,3.1-1.1l3.5-1.2c1.1-.4,2.2-.7,2.6-.8.7,0,1.4-.2,2.1-.2h18.3c.1,0,0,.5-.1.9l-.5,1.2c-.2.4-.5.8-.8,1.1h0ZM145.1,115.2c-.2.2-1.1.7-2,1.2l-7.3,4.2-3.1,1.8-7.3,4.2c-.8.5-1.8,1-2.1,1.2s-2,.8-3.1,1.1l-3.5,1.2c-1.1.4-2.2.7-2.6.8-.7.1-1.4.2-2.1.2h-18.3c0,0,0-.5,0-.9l.5-1.2c0-.3.3-.6.5-.9.7-.5,1.4-1,2.2-1.4l7.3-4.2,3.1-1.8,7.3-4.2c.8-.5,1.8-1,2.1-1.2s2-.8,3.1-1.1l3.5-1.2c1.1-.4,2.2-.7,2.6-.8.7,0,1.4-.2,2.1-.2h18.3c.1,0,0,.5-.1.9l-.5,1.2c-.2.4-.5.8-.8,1.1h.1ZM175.2,115.2c-.2.2-1.1.7-2,1.2l-7.3,4.2-3.1,1.8-7.3,4.2c-.8.5-1.8,1-2.1,1.2s-2,.8-3.1,1.1l-3.5,1.2c-1.1.4-2.2.7-2.6.8-.7.1-1.4.2-2.1.2h-18.3c0,0,0-.5,0-.9l.5-1.2c0-.3.3-.6.5-.9.7-.5,1.4-1,2.2-1.4l7.3-4.2,3.1-1.8,7.3-4.2c.8-.5,1.8-1,2.1-1.2s2-.8,3.1-1.1l3.5-1.2c1.1-.4,2.2-.7,2.6-.8.7,0,1.4-.2,2.1-.2h18.3c.1,0,0,.5-.1.9l-.5,1.2c-.2.4-.5.8-.8,1.1h.1ZM205.2,115.2c-.2.2-1.1.7-2,1.2l-7.3,4.2-3.1,1.8-7.3,4.2c-.8.5-1.8,1-2.1,1.2s-2,.8-3.1,1.1l-3.5,1.2c-1.1.4-2.2.7-2.5.8-.7.1-1.4.2-2.1.2h-18.3c-.1,0,0-.5.1-.9l.5-1.2c.1-.3.3-.6.5-.9.7-.5,1.4-1,2.2-1.4l7.3-4.2,3.1-1.8,7.3-4.2c.8-.5,1.8-1,2.1-1.2s2-.8,3.1-1.1l3.5-1.2c1.1-.4,2.2-.7,2.6-.8.7,0,1.4-.2,2.1-.2h18.3c.1,0,0,.5-.1.9l-.5,1.2c-.2.4-.5.8-.8,1.1h0ZM235.2,115.2c-.2.2-1.1.7-2,1.2l-7.3,4.2-3.1,1.8-7.3,4.2c-.8.5-1.8,1-2.1,1.2s-2,.8-3.1,1.1l-3.5,1.2c-1.1.4-2.2.7-2.6.8-.7.1-1.4.2-2.1.2h-18.3c-.1,0,0-.5.1-.9l.5-1.2c.1-.3.3-.6.5-.9.7-.5,1.4-1,2.2-1.4l7.3-4.2,3.1-1.8,7.3-4.2c.8-.5,1.8-1,2.1-1.2s2-.8,3.1-1.1l3.5-1.2c1.1-.4,2.2-.7,2.6-.8.7,0,1.4-.2,2.1-.2h18.3c.1,0,0,.5-.1.9l-.5,1.2c-.2.4-.5.8-.8,1.1h.1ZM265.2,115.2c-.2.2-1.1.7-2,1.2l-7.3,4.2-3.1,1.8-7.3,4.2c-.8.5-1.8,1-2.1,1.2s-2,.8-3.1,1.1l-3.5,1.2c-1.1.4-2.2.7-2.6.8-.7.1-1.4.2-2.1.2h-18.3c-.1,0,0-.5.1-.9l.5-1.2c.1-.3.3-.6.5-.9.7-.5,1.4-1,2.2-1.4l7.3-4.2,3.1-1.8,7.3-4.2c.8-.5,1.8-1,2.1-1.2s2-.8,3.1-1.1l3.5-1.2c1.1-.4,2.2-.7,2.6-.8.7,0,1.4-.2,2.1-.2h18.3c.1,0,0,.5-.1.9l-.5,1.2c-.2.4-.5.8-.8,1.1h.1ZM295.2,115.2c-.2.2-1.1.7-2,1.2l-7.3,4.2-3.1,1.8-7.3,4.2c-.8.5-1.8,1-2.1,1.2s-2,.8-3.1,1.1l-3.5,1.2c-1.1.4-2.2.7-2.6.8-.7.1-1.4.2-2.1.2h-18.3c-.1,0,0-.5.1-.9l.5-1.2c.1-.3.3-.6.5-.9.7-.5,1.4-1,2.2-1.4l7.3-4.2,3.1-1.8,7.3-4.2c.8-.5,1.8-1,2.1-1.2s2-.8,3.1-1.1l3.5-1.2c1.1-.4,2.2-.7,2.6-.8.7,0,1.4-.2,2.1-.2h18.3c.1,0,0,.5-.1.9l-.5,1.2c-.2.4-.5.8-.8,1.1h.1ZM109.9,135.4c-.2.2-1.1.7-2,1.2l-7.3,4.2-3.1,1.8-7.3,4.2c-.8.5-1.8,1-2.1,1.2s-2,.8-3.1,1.1l-3.5,1.2c-1.1.4-2.2.7-2.6.8-.7.1-1.4.2-2.1.2h-18.3c0,0,0-.5,0-.9l.5-1.2c0-.3.3-.6.5-.9.7-.5,1.4-1,2.2-1.4l7.3-4.2,3.1-1.8,7.3-4.2c.8-.5,1.8-1,2.1-1.2s2-.8,3.1-1.1l3.5-1.2c1.1-.4,2.2-.7,2.6-.8.7-.1,1.4-.2,2.1-.2h18.3c0,0,0,.5,0,.9l-.5,1.2c-.2.4-.5.8-.8,1.1h.1ZM139.9,135.4c-.2.2-1.1.7-2,1.2l-7.3,4.2-3.1,1.8-7.3,4.2c-.8.5-1.8,1-2.1,1.2s-2,.8-3.1,1.1l-3.5,1.2c-1.1.4-2.2.7-2.6.8-.7.1-1.4.2-2.1.2h-18.3c0,0,0-.5,0-.9l.5-1.2c0-.3.3-.6.5-.9.7-.5,1.4-1,2.2-1.4l7.3-4.2,3.1-1.8,7.3-4.2c.8-.5,1.8-1,2.1-1.2s2-.8,3.1-1.1l3.5-1.2c1.1-.4,2.2-.7,2.6-.8.7-.1,1.4-.2,2.1-.2h18.3c.1,0,0,.5-.1.9l-.5,1.2c-.2.4-.5.8-.8,1.1h.1ZM169.9,135.4c-.2.2-1.1.7-2,1.2l-7.3,4.2-3.1,1.8-7.3,4.2c-.8.5-1.8,1-2.1,1.2s-2,.8-3.1,1.1l-3.5,1.2c-1.1.4-2.2.7-2.5.8-.7.1-1.4.2-2.1.2h-18.3c0,0,0-.5,0-.9l.5-1.2c0-.3.3-.6.5-.9.7-.5,1.4-1,2.2-1.4l7.3-4.2,3.1-1.8,7.3-4.2c.8-.5,1.8-1,2.1-1.2s2-.8,3.1-1.1l3.5-1.2c1.1-.4,2.2-.7,2.6-.8.7-.1,1.4-.2,2.1-.2h18.3c.1,0,0,.5-.1.9l-.5,1.2c-.2.4-.5.8-.8,1.1h0ZM200,135.4c-.2.2-1.1.7-2,1.2l-7.3,4.2-3.1,1.8-7.3,4.2c-.8.5-1.8,1-2.1,1.2s-2,.8-3.1,1.1l-3.5,1.2c-1.1.4-2.2.7-2.6.8-.7.1-1.4.2-2.1.2h-18.3c-.1,0,0-.5.1-.9l.5-1.2c.1-.3.3-.6.5-.9.7-.5,1.4-1,2.2-1.4l7.3-4.2,3.1-1.8,7.3-4.2c.8-.5,1.8-1,2.1-1.2s2-.8,3.1-1.1l3.5-1.2c1.1-.4,2.2-.7,2.6-.8.7-.1,1.4-.2,2.1-.2h18.3c.1,0,0,.5-.1.9l-.5,1.2c-.2.4-.5.8-.8,1.2h.1ZM230,135.4c-.2.2-1.1.7-2,1.2l-7.3,4.2-3.1,1.8-7.3,4.2c-.8.5-1.8,1-2.1,1.2s-2,.8-3.1,1.1l-3.5,1.2c-1.1.4-2.2.7-2.6.8-.7.1-1.4.2-2.1.2h-18.3c-.1,0,0-.5.1-.9l.5-1.2c.1-.3.3-.6.5-.9.7-.5,1.4-1,2.2-1.4l7.3-4.2,3.1-1.8,7.3-4.2c.8-.5,1.8-1,2.1-1.2s2-.8,3.1-1.1l3.5-1.2c1.1-.4,2.2-.7,2.6-.8.7-.1,1.4-.2,2.1-.2h18.3c.1,0,0,.5-.1.9l-.6,1.2c-.2.4-.5.8-.8,1.1h.2ZM260,135.4c-.2.2-1.1.7-2,1.2l-7.3,4.2-3.1,1.8-7.3,4.2c-.8.5-1.8,1-2.1,1.2s-2,.8-3.1,1.1l-3.5,1.2c-1.1.4-2.2.7-2.6.8-.7.1-1.4.2-2.1.2h-18.3c-.1,0,0-.5.1-.9l.5-1.2c.1-.3.3-.6.5-.9.7-.5,1.4-1,2.2-1.4l7.3-4.2,3.1-1.8,7.3-4.2c.8-.5,1.8-1,2.1-1.2s2-.8,3.1-1.1l3.5-1.2c1.1-.4,2.2-.7,2.6-.8.7-.1,1.4-.2,2.1-.2h18.3c.1,0,0,.5-.1.9l-.5,1.2c-.2.4-.5.8-.8,1.1h.1ZM74.6,155.9c-.2.2-1.1.7-2,1.2l-7.3,4.2-3.1,1.8-7.3,4.2c-.8.5-1.8,1-2.1,1.2s-2,.8-3.1,1.1l-3.5,1.2c-1.1.4-2.2.7-2.5.8-.7.1-1.4.2-2.1.2h-18.3c-.1,0,0-.5.1-.9l.5-1.2c.1-.3.3-.6.5-.9.7-.5,1.4-1,2.2-1.4l7.3-4.2,3.1-1.8,7.3-4.2c.8-.5,1.8-1,2.1-1.2s2-.8,3.1-1.1l3.5-1.2c1.1-.4,2.2-.7,2.6-.8.7-.1,1.4-.2,2.1-.2h18.3c0,0,0,.5,0,.9l-.5,1.2c-.2.4-.5.8-.8,1.1h0ZM104.6,155.9c-.2.2-1.1.7-2,1.2l-7.3,4.2-3.1,1.8-7.3,4.2c-.8.5-1.8,1-2.1,1.2s-2,.8-3.1,1.1l-3.5,1.2c-1.1.4-2.2.7-2.6.8-.7.1-1.4.2-2.1.2h-18.3c0,0,0-.5,0-.9l.5-1.2c0-.3.3-.6.5-.9.7-.5,1.4-1,2.2-1.4l7.3-4.2,3.1-1.8,7.2-4.2c.8-.5,1.8-1,2.1-1.2s2-.8,3.1-1.1l3.5-1.2c1.1-.4,2.2-.7,2.6-.8.7-.1,1.4-.2,2.1-.2h18.3c0,0,0,.5,0,.9l-.5,1.2c-.2.4-.5.8-.8,1.1h.2ZM134.6,155.9c-.2.2-1.1.7-2,1.2l-7.3,4.2-3.1,1.8-7.3,4.2c-.8.5-1.8,1-2.1,1.2s-2,.8-3.1,1.1l-3.5,1.2c-1.1.4-2.2.7-2.5.8-.7.1-1.4.2-2.1.2h-18.3c0,0,0-.5,0-.9l.5-1.2c0-.3.3-.6.5-.9.7-.5,1.4-1,2.2-1.4l7.3-4.2,3.1-1.8,7.3-4.2c.8-.5,1.8-1,2.1-1.2s2-.8,3.1-1.1l3.5-1.2c1.1-.4,2.2-.7,2.6-.8.7-.1,1.4-.2,2.1-.2h18.3c.1,0,0,.5-.1.9l-.5,1.1c-.2.4-.5.8-.8,1.1h0ZM164.7,155.9c-.2.2-1.1.7-2,1.2l-7.3,4.2-3,1.8-7.3,4.2c-.8.5-1.8,1-2.1,1.2s-2,.8-3.1,1.1l-3.5,1.2c-1.1.4-2.2.7-2.6.8-.7.1-1.4.2-2.1.2h-18.3c0,0,0-.5,0-.9l.5-1.2c0-.3.3-.6.5-.9.7-.5,1.4-1,2.2-1.4l7.3-4.2,3.1-1.8,7.3-4.2c.8-.5,1.8-1,2.1-1.2s2-.8,3.1-1.1l3.5-1.2c1.1-.4,2.2-.7,2.6-.8.7-.1,1.4-.2,2.1-.2h18.3c.1,0,0,.5-.1.9l-.5,1.2c-.2.4-.5.8-.8,1.1h0ZM194.7,155.9c-.2.2-1.1.7-2,1.2l-7.3,4.2-3.1,1.8-7.3,4.2c-.8.5-1.8,1-2.1,1.2s-2,.8-3.1,1.1l-3.5,1.2c-1.1.4-2.2.7-2.5.8-.7.1-1.4.2-2.1.2h-18.3c-.1,0,0-.5.1-.9l.5-1.2c.1-.3.3-.6.5-.9.7-.5,1.4-1,2.2-1.4l7.3-4.2,3.1-1.8,7.3-4.2c.8-.5,1.8-1,2.1-1.2s2-.8,3.1-1.1l3.5-1.2c1.1-.4,2.2-.7,2.6-.8.7-.1,1.4-.2,2.1-.2h18.3c.1,0,0,.5-.1.9l-.5,1.2c-.2.4-.5.8-.8,1.1h0ZM224.7,155.9c-.2.2-1.1.7-2,1.2l-7.3,4.2-3.1,1.8-7.3,4.2c-.8.5-1.8,1-2.1,1.2s-2,.8-3.1,1.1l-3.5,1.2c-1.1.4-2.2.7-2.6.8-.7.1-1.4.2-2.1.2h-18.3c-.1,0,0-.5.1-.9l.5-1.2c.1-.3.3-.6.5-.9.7-.5,1.4-1,2.2-1.4l7.3-4.2,3.1-1.8,7.3-4.2c.8-.5,1.8-1,2.1-1.2s2-.8,3.1-1.1l3.5-1.2c1.1-.4,2.2-.7,2.6-.8.7-.1,1.4-.2,2.1-.2h18.3c.1,0,0,.5-.1.9l-.5,1.2c-.2.4-.5.8-.8,1.1h.1ZM39.3,176.2c-.2.2-1.1.7-2,1.2l-7.3,4.2-3.1,1.8-7.3,4.2c-.8.5-1.8,1-2.1,1.2s-2,.8-3.1,1.1l-3.5,1.2c-1.1.4-2.2.7-2.5.8-.7.1-1.4.2-2.1.2H-12c-.1,0,0-.5.1-.9l.5-1.2c.1-.3.3-.6.5-.9.7-.5,1.5-1,2.2-1.4l7.3-4.2,3.1-1.8,7.3-4.2c.8-.5,1.8-1,2.1-1.2s2-.8,3.1-1.1l3.5-1.2c1.1-.4,2.2-.7,2.6-.8.7-.1,1.4-.2,2.1-.2h18.3c0,0,0,.5,0,.9l-.5,1.2c-.2.4-.5.8-.8,1.1h0ZM69.3,176.2c-.2.2-1.1.7-2,1.2l-7.3,4.2-3.1,1.8-7.3,4.2c-.8.5-1.8,1-2.1,1.2s-2,.8-3.1,1.1l-3.5,1.2c-1.1.4-2.2.7-2.6.8-.7.1-1.4.2-2.1.2h-18.3c-.1,0,0-.5.1-.9l.5-1.2c.1-.3.3-.6.5-.9.7-.5,1.4-1,2.2-1.4l7.3-4.2,3.1-1.8,7.3-4.2c.8-.5,1.8-1,2.1-1.2s2-.8,3.1-1.1l3.5-1.2c1.1-.4,2.2-.7,2.6-.8.7-.1,1.4-.2,2.1-.2h18.3c0,0,0,.5,0,.9l-.5,1.2c-.2.4-.5.8-.8,1.1h0ZM99.3,176.2c-.2.2-1.1.7-2,1.2l-7.3,4.2-3.1,1.8-7.3,4.2c-.8.5-1.8,1-2.1,1.2s-2,.8-3.1,1.1l-3.5,1.2c-1.1.4-2.2.7-2.5.8-.7.1-1.4.2-2.1.2h-18.3c0,0,0-.5,0-.9l.5-1.2c0-.3.3-.6.5-.9.7-.5,1.4-1,2.2-1.4l7.3-4.2,3.1-1.8,7.3-4.2c.8-.5,1.8-1,2.1-1.2s2-.8,3.1-1.1l3.5-1.2c1.1-.4,2.2-.7,2.6-.8.7-.1,1.4-.2,2.1-.2h16.8c.5,0,1,0,1.4.1,0,0,0,.5,0,.9l-.5,1.2c-.2.4-.5.8-.8,1.1h.1ZM129.4,176.2c-.2.2-1.1.7-2,1.2l-7.3,4.2-3.1,1.8-7.3,4.2c-.8.5-1.8,1-2.1,1.2s-2,.8-3.1,1.1l-3.5,1.2c-1.1.4-2.2.7-2.6.8-.7.1-1.4.2-2.1.2h-18.3c0,0,0-.5,0-.9l.5-1.2c0-.3.3-.6.5-.9.7-.5,1.4-1,2.2-1.4l7.3-4.2,3.1-1.8,7.3-4.2c.8-.5,1.8-1,2.1-1.2s2-.8,3.1-1.1l3.5-1.2c1.1-.4,2.2-.7,2.6-.8.7-.1,1.4-.2,2.1-.2h18.3c.1,0,0,.5-.1.9l-.5,1.2c-.2.4-.5.8-.8,1.1h.1ZM159.4,176.2c-.2.2-1.1.7-2,1.2l-7.3,4.2-3.1,1.8-7.3,4.2c-.8.5-1.8,1-2.1,1.2s-2,.8-3.1,1.1l-3.5,1.2c-1.1.4-2.2.7-2.5.8-.7.1-1.4.2-2.1.2h-18.3c0,0,0-.5,0-.9l.5-1.2c0-.3.3-.6.5-.9.7-.5,1.4-1,2.2-1.4l7.3-4.2c.8-.5,2.2-1.3,3.1-1.8l7.3-4.2c.8-.5,1.8-1,2.1-1.2s2-.8,3.1-1.1l3.5-1.2c1.1-.4,2.2-.7,2.6-.8.7-.1,1.4-.2,2.1-.2h18.3c.1,0,0,.5-.1.9l-.5,1.2c-.2.4-.5.8-.8,1.1h0ZM189.5,176.2c-.2.2-1.1.7-2,1.2l-7.3,4.2-3.1,1.8-7.3,4.2c-.8.5-1.8,1-2.1,1.2s-2,.8-3.1,1.1l-3.5,1.2c-1.1.4-2.2.7-2.6.8-.7.1-1.4.2-2.1.2h-18.3c-.1,0,0-.5.1-.9l.5-1.2c.1-.3.3-.6.5-.9.7-.5,1.4-1,2.2-1.4l7.3-4.2,3.1-1.8,7.3-4.2c.8-.5,1.8-1,2.1-1.2s2-.8,3.1-1.1l3.5-1.2c1.1-.4,2.2-.7,2.6-.8.7-.1,1.4-.2,2.1-.2h18.3c.1,0,0,.5-.1.9l-.5,1.2c-.2.4-.5.8-.8,1.1h.1ZM4,196.7c-.2.2-1.1.7-2,1.2l-7.3,4.2c-.8.5-2.2,1.3-3.1,1.8l-7.3,4.2c-.8.5-1.8,1-2.1,1.2s-2,.8-3.1,1.1l-3.5,1.2c-1.1.4-2.2.7-2.6.8-.7.1-1.4.2-2.1.2h-18.3c0,0,0-.5,0-.9l.5-1.2c0-.3.3-.6.5-.9.7-.5,1.4-1,2.2-1.4l7.3-4.2,3.1-1.8,7.3-4.2c.8-.5,1.8-1,2.1-1.2s2-.8,3.1-1.1l3.5-1.2c1.1-.4,2.2-.7,2.6-.8.7-.1,1.4-.2,2.1-.2H5.5c0,0,0,.5,0,.9l-.5,1.2c-.2.4-.5.8-.8,1.1h0ZM34,196.7c-.2.2-1.1.7-2,1.2l-7.3,4.2c-.8.5-2.2,1.3-3.1,1.8l-7.3,4.2c-.8.5-1.8,1-2.1,1.2s-2,.8-3.1,1.1l-3.5,1.2c-1.1.4-2.2.7-2.6.8-.7.1-1.4.2-2.1.2h-18.2c-.1,0,0-.5.1-.9l.5-1.2c.1-.3.3-.6.5-.9.7-.5,1.4-1,2.2-1.4l7.3-4.2,3.1-1.8,7.3-4.2c.8-.5,1.8-1,2.1-1.2s2-.8,3.1-1.1l3.5-1.2c1.1-.4,2.2-.7,2.6-.8.7-.1,1.4-.2,2.1-.2h18.3c0,0,0,.5,0,.9l-.5,1.2c-.2.4-.5.8-.8,1.1h0ZM64.1,196.7c-.2.2-1.1.7-2,1.2l-7.3,4.2c-.8.5-2.2,1.3-3.1,1.8l-7.3,4.2c-.8.5-1.8,1-2.1,1.2s-2,.8-3.1,1.1l-3.5,1.2c-1.1.4-2.2.7-2.6.8-.7.1-1.4.2-2.1.2H12.8c-.1,0,0-.5.1-.9l.5-1.2c.1-.3.3-.6.5-.9.7-.5,1.4-1,2.2-1.4l7.3-4.2,3.1-1.8,7.3-4.2c.8-.5,1.8-1,2.1-1.2s2-.8,3.1-1.1l3.5-1.2c1.1-.4,2.2-.7,2.6-.8.7-.1,1.4-.2,2.1-.2h18.3c0,0,0,.5,0,.9l-.5,1.2c-.2.4-.5.8-.8,1.1h0ZM94.1,196.7c-.2.2-1.1.7-2,1.2l-7.3,4.2c-.8.5-2.2,1.3-3.1,1.8l-7.3,4.2c-.8.5-1.8,1-2.1,1.2s-2,.8-3.1,1.1l-3.5,1.2c-1.1.4-2.2.7-2.6.8-.7.1-1.4.2-2.1.2h-18.3c0,0,0-.5,0-.9l.5-1.2c0-.3.3-.6.5-.9.7-.5,1.4-1,2.2-1.4l7.3-4.2,3.1-1.8,7.3-4.2c.8-.5,1.8-1,2.1-1.2s2-.8,3.1-1.1l3.5-1.2c1.1-.4,2.2-.7,2.6-.8.7-.1,1.4-.2,2.1-.2h18.3c0,0,0,.5,0,.9l-.5,1.2c-.2.4-.5.8-.8,1.1h.1ZM124.1,196.7c-.2.2-1.1.7-2,1.2l-7.3,4.2c-.8.5-2.2,1.3-3.1,1.8l-7.3,4.2c-.8.5-1.8,1-2.1,1.2s-2,.8-3.1,1.1l-3.5,1.2c-1.1.4-2.2.7-2.6.8-.7.1-1.4.2-2.1.2h-18.3c0,0,0-.5,0-.9l.5-1.2c0-.3.3-.6.5-.9.7-.5,1.4-1,2.2-1.4l7.3-4.2,3.1-1.8,7.3-4.2c.8-.5,1.8-1,2.1-1.2s2-.8,3.1-1.1l3.5-1.2c1.1-.4,2.2-.7,2.6-.8.7-.1,1.4-.2,2.1-.2h18.3c0,0,0,.5,0,.9l-.5,1.2c-.2.4-.5.8-.8,1.1h.1ZM154.2,196.7c-.2.2-1.1.7-2,1.2l-7.3,4.2c-.8.5-2.2,1.3-3.1,1.8l-7.3,4.2c-.8.5-1.8,1-2.1,1.2s-2,.8-3.1,1.1l-3.5,1.2c-1.1.4-2.2.7-2.6.8-.7.1-1.4.2-2.1.2h-18.3c0,0,0-.5,0-.9l.5-1.2c0-.3.3-.6.5-.9.7-.5,1.4-1,2.2-1.4l7.3-4.2,3.1-1.8,7.3-4.2c.8-.5,1.8-1,2.1-1.2s2-.8,3.1-1.1l3.5-1.2c1.1-.4,2.2-.7,2.6-.8.7-.1,1.4-.2,2.1-.2h18.3c.1,0,0,.5-.1.9l-.5,1.2c-.2.4-.5.8-.8,1.1h.1ZM-31.3,216.9c-.2.2-1.1.7-2,1.2l-7.3,4.2-3.1,1.8-7.3,4.2c-.8.5-1.8,1-2.1,1.2s-2,.8-3.1,1.1l-3.5,1.2c-1.1.4-2.2.7-2.6.8-.7.1-1.4.2-2.1.2h-18.3c0,0,0-.5,0-.9l.5-1.2c0-.3.3-.6.5-.9.7-.5,1.4-1,2.2-1.4l7.3-4.2,3.1-1.8,7.3-4.2c.8-.5,1.8-1,2.1-1.2s2-.8,3.1-1.1l3.5-1.2c1.1-.4,2.2-.7,2.5-.8.7-.1,1.4-.2,2.1-.2h18.3c.1,0,0,.5-.1.9l-.5,1.2c-.2.4-.5.8-.8,1.1h.2ZM-1.3,216.9c-.2.2-1.1.7-2,1.2l-7.3,4.2-3.1,1.8-7.3,4.2c-.8.5-1.8,1-2.1,1.2s-2,.8-3.1,1.1l-3.5,1.2c-1.1.4-2.2.7-2.6.8-.7.1-1.4.2-2.1.2h-18.3c0,0,0-.5,0-.9l.5-1.2c0-.3.3-.6.5-.9.7-.5,1.4-1,2.2-1.4l7.3-4.2,3.1-1.8,7.3-4.2c.8-.5,1.8-1,2.1-1.2s2-.8,3.1-1.1l3.5-1.2c1.1-.4,2.2-.7,2.6-.8.7-.1,1.4-.2,2.1-.2H.2c0,0,0,.5-.1.9l-.5,1.2c-.2.4-.5.8-.8,1.1h-.1ZM28.8,216.9c-.2.2-1.1.7-2,1.2l-7.3,4.2-3.1,1.8-7.2,4.2c-.8.5-1.8,1-2.1,1.2s-2,.8-3.1,1.1l-3.5,1.2c-1.1.4-2.2.7-2.6.8-.7.1-1.4.2-2.1.2h-18.3c-.1,0,0-.5.1-.9l.5-1.2c.1-.3.3-.6.5-.9.7-.5,1.4-1,2.2-1.4l7.3-4.2,3.1-1.8,7.3-4.2c.8-.5,1.8-1,2.1-1.2s2-.8,3.1-1.1l3.5-1.2c1.1-.4,2.2-.7,2.6-.8.7-.1,1.4-.2,2.1-.2h18.3c.1,0,0,.5-.1.9l-.5,1.2c-.2.4-.5.8-.8,1.1h0ZM58.8,216.9c-.2.2-1.1.7-2,1.2l-7.3,4.2-3.1,1.8-7.3,4.2c-.8.5-1.8,1-2.1,1.2s-2,.8-3.1,1.1l-3.5,1.2c-1.1.4-2.2.7-2.6.8-.7.1-1.4.2-2.1.2H7.5c0,0,0-.5,0-.9l.5-1.2c.1-.3.3-.6.5-.9.7-.5,1.4-1,2.2-1.4l7.3-4.2,3.1-1.8,7.3-4.2c.8-.5,1.8-1,2.1-1.2s2-.8,3.1-1.1l3.5-1.2c1.1-.4,2.2-.7,2.6-.8.7-.1,1.4-.2,2.1-.2h18.3c0,0,0,.5,0,.9l-.5,1.2c-.2.4-.5.8-.8,1.1h0ZM88.8,216.9c-.2.2-1.1.7-2,1.2l-7.3,4.2-3.1,1.8-7.3,4.2c-.8.5-1.8,1-2.1,1.2s-2,.8-3.1,1.1l-3.5,1.2c-1.1.4-2.2.7-2.6.8-.7.1-1.4.2-2.1.2h-18.3c0,0,0-.5,0-.9l.5-1.2c0-.3.3-.6.5-.9.7-.5,1.4-1,2.2-1.4l7.3-4.2,3.1-1.8,7.3-4.2c.8-.5,1.8-1,2.1-1.2s2-.8,3.1-1.1l3.5-1.2c1.1-.4,2.2-.7,2.5-.8.7-.1,1.4-.2,2.1-.2h18.3c0,0,0,.5,0,.9l-.5,1.2c-.2.4-.5.8-.8,1.1h.2ZM118.9,216.9c-.2.2-1.1.7-2,1.2l-7.3,4.2-3.1,1.8-7.3,4.2c-.8.5-1.8,1-2.1,1.2s-2,.8-3.1,1.1l-3.5,1.2c-1.1.4-2.2.7-2.6.8-.7.1-1.4.2-2.1.2h-18.3c0,0,0-.5,0-.9l.5-1.2c0-.3.3-.6.5-.9.7-.5,1.4-1,2.2-1.4l7.3-4.2,3.1-1.8,7.3-4.2c.8-.5,1.8-1,2.1-1.2s2-.8,3.1-1.1l3.5-1.2c1.1-.4,2.2-.7,2.6-.8.7-.1,1.4-.2,2.1-.2h18.3c0,0,0,.5,0,.9l-.5,1.2c-.2.4-.5.8-.8,1.1h.1ZM-66.6,237.4c-.2.2-1.1.7-2,1.2l-7.3,4.2c-.8.5-2.2,1.3-3.1,1.8l-7.3,4.2c-.8.5-1.8,1-2.1,1.2s-2,.8-3.1,1.1l-3.5,1.2c-1.1.4-2.2.7-2.6.8-.7.1-1.4.2-2.1.2h-18.3c0,0,0-.5,0-.9l.5-1.2c0-.3.3-.6.5-.9.7-.5,1.4-1,2.2-1.4l7.3-4.2,3.1-1.8,7.3-4.2c.8-.5,1.8-1,2.1-1.2s2-.8,3.1-1.1l3.5-1.2c1.1-.4,2.2-.7,2.6-.8.7-.1,1.4-.2,2.1-.2h18.3c0,0,0,.5,0,.9l-.5,1.2c-.2.4-.5.8-.8,1.1h.1ZM-36.5,237.4c-.2.2-1.1.7-2,1.2l-7.3,4.2c-.8.5-2.2,1.3-3.1,1.8l-7.3,4.2c-.8.5-1.8,1-2.1,1.2s-2,.8-3.1,1.1l-3.5,1.2c-1.1.4-2.2.7-2.6.8-.7.1-1.4.2-2.1.2h-18.3c0,0,0-.5,0-.9l.5-1.2c0-.3.3-.6.5-.9.7-.5,1.4-1,2.2-1.4l7.3-4.2,3.1-1.8,7.3-4.2c.8-.5,1.8-1,2.1-1.2s2-.8,3.1-1.1l3.5-1.2c1.1-.4,2.2-.7,2.6-.8.7-.1,1.4-.2,2.1-.2h18.3c0,0,0,.5,0,.9l-.5,1.2c-.2.4-.5.8-.8,1.1h0ZM-6.5,237.4c-.2.2-1.1.7-2,1.2l-7.3,4.2c-.8.5-2.2,1.3-3.1,1.8l-7.3,4.2c-.8.5-1.8,1-2.1,1.2s-2,.8-3.1,1.1l-3.5,1.2c-1.1.4-2.2.7-2.6.8-.7.1-1.4.2-2.1.2h-18.3c0,0,0-.5,0-.9l.5-1.2c0-.3.3-.6.5-.9.7-.5,1.4-1,2.2-1.4l7.3-4.2,3.1-1.8,7.3-4.2c.8-.5,1.8-1,2.1-1.2s2-.8,3.1-1.1l3.5-1.2c1.1-.4,2.2-.7,2.6-.8.7-.1,1.4-.2,2.1-.2H-5c0,0,0,.5,0,.9l-.5,1.2c-.2.4-.5.8-.8,1.1h0ZM23.5,237.4c-.2.2-1.1.7-2,1.2l-7.3,4.2c-.8.5-2.2,1.3-3.1,1.8l-7.3,4.2c-.8.5-1.8,1-2.1,1.2s-2,.8-3.1,1.1l-3.5,1.2c-1.1.4-2.2.7-2.6.8-.7.1-1.4.2-2.1.2h-18.3c-.1,0,0-.5.1-.9l.5-1.2c.1-.3.3-.6.5-.9.7-.5,1.4-1,2.2-1.4l7.3-4.2,3.1-1.8,7.3-4.2c.8-.5,1.8-1,2.1-1.2s2-.8,3.1-1.1l3.5-1.2c1.1-.4,2.2-.7,2.6-.8.7-.1,1.4-.2,2.1-.2h18.3c.1,0,0,.5-.1.9l-.5,1.2c-.2.4-.5.8-.8,1.1h0ZM53.6,237.4c-.2.2-1.1.7-2,1.2l-7.3,4.2c-.8.5-2.2,1.3-3.1,1.8l-7.3,4.2c-.8.5-1.8,1-2.1,1.2s-2,.8-3.1,1.1l-3.5,1.2c-1.1.4-2.2.7-2.6.8-.7.1-1.4.2-2.1.2H2.3c0,0,0-.5,0-.9l.5-1.2c0-.3.3-.6.5-.9.7-.5,1.4-1,2.2-1.4l7.3-4.2,3.1-1.8,7.3-4.2c.8-.5,1.8-1,2.1-1.2s2-.8,3.1-1.1l3.5-1.2c1.1-.4,2.2-.7,2.6-.8.7-.1,1.4-.2,2.1-.2h18.3c0,0,0,.5,0,.9l-.5,1.2c-.2.4-.5.8-.8,1.1h0ZM83.6,237.4c-.2.2-1.1.7-2,1.2l-7.3,4.2c-.8.5-2.2,1.3-3.1,1.8l-7.3,4.2c-.8.5-1.8,1-2.1,1.2s-2,.8-3.1,1.1l-3.5,1.2c-1.1.4-2.2.7-2.6.8-.7.1-1.4.2-2.1.2h-18.3c0,0,0-.5,0-.9l.5-1.2c0-.3.3-.6.5-.9.7-.5,1.4-1,2.2-1.4l7.3-4.2,3.1-1.8,7.3-4.2c.8-.5,1.8-1,2.1-1.2s2-.8,3.1-1.1l3.5-1.2c1.1-.4,2.2-.7,2.6-.8.7-.1,1.4-.2,2.1-.2h18.3c0,0,0,.5,0,.9l-.5,1.2c-.2.4-.5.8-.8,1.1h.1Z"/>
      <polygon class="st4" points="-121.6 257.2 -122.5 257.2 206.6 67.2 207.5 67.2 -121.6 257.2"/>
      <polygon class="st4" points="-107.3 257.2 -108.2 257.2 220.9 67.2 221.8 67.2 -107.3 257.2"/>
      <polygon class="st4" points="-91.5 257.2 -92.4 257.2 236.6 67.2 237.5 67.2 -91.5 257.2"/>
      <polygon class="st4" points="-77.2 257.2 -78.1 257.2 251 67.2 251.9 67.2 -77.2 257.2"/>
      <polygon class="st4" points="-61.5 257.2 -62.4 257.2 266.7 67.2 267.6 67.2 -61.5 257.2"/>
      <polygon class="st4" points="-47.2 257.2 -48.1 257.2 281 67.2 281.9 67.2 -47.2 257.2"/>
      <polygon class="st4" points="-31.5 257.2 -32.4 257.2 296.7 67.2 297.6 67.2 -31.5 257.2"/>
      <polygon class="st4" points="-17.2 257.2 -18.1 257.2 311 67.2 311.9 67.2 -17.2 257.2"/>
      <polygon class="st4" points="12.9 257.2 12 257.2 341.1 67.2 342 67.2 12.9 257.2"/>
      <polygon class="st4" points="28.6 257.2 27.7 257.2 356.7 67.2 357.7 67.2 28.6 257.2"/>
      <polygon class="st4" points="42.9 257.2 42 257.2 371.1 67.2 372 67.2 42.9 257.2"/>
      <polygon class="st4" points="-1.4 257.2 -2.3 257.2 326.7 67.2 327.6 67.2 -1.4 257.2"/>
      <path class="st3" d="M52.3,258.3h-188c-1.2,0-.9-.7.6-1.6L192.5,67.6c1.5-.9,3.6-1.5,4.8-1.5h188c1.2,0,.9.7-.6,1.5L57.1,256.7c-1.5.9-3.6,1.6-4.8,1.6ZM194.9,67.4c-.2,0-.5,0-.7.2l-327.6,189.1c-.2.1-.3.2,0,.2H54.6c.2,0,.5-.1.7-.2L382.7,67.6c.2,0,.2-.2,0-.2h-188,.1Z"/>
      <polygon class="st3" points="19.3 21.7 80.4 21.7 55.9 26.6 148 35.5 55.1 33.9 143.1 64 52.7 40 133.3 91.2 48.6 46.5 106.4 106.4 43.7 51.4 87.3 125.1 37.6 55.5 62.5 132.9 31.1 57.5 39.2 152.8 24.6 58.7 19.3 94.6 19.3 21.7"/>
    </g>
  </g>
  <circle class="st0" cx="101" cy="105.7" r="96.1"/>
  <path class="st3" d="M266.2,103.8c-24,0-43.1-18.6-43.1-43.2V17.5h14.1v39.2c0,16.9,11.8,32.7,29.2,32.7h23.4v14.4h-23.6Z"/>
  <path class="st3" d="M340.6,103.8c-23.9,0-43.5-18.6-43.5-43.1s19.6-43.1,43.5-43.1h23.5v14.4h-23.4c-13.9,0-25.4,9-28.5,21.7h41.9v13.8h-42.1c3,12.8,14.7,21.9,28.6,21.9h23.4v14.4h-23.5.1Z"/>
  <path class="st3" d="M401.6,67.4h-9v36.4h-13.9V17.5h22.9c21.6,0,31.4,9.7,31.4,25.6s-9.6,24.3-31.4,24.3ZM392.6,31.9v21.6h8.9c13.7,0,17-5.4,17-10,0-8.5-4.2-11.6-17-11.6,0,0-8.9,0-8.9,0Z"/>
  <path class="st3" d="M439.7,91.9l10.4-9.7c4.3,5.9,10.1,8.4,15.2,8.4,9.2,0,16.9-5.2,16.9-12.8-.1-13.1-37.5-12-37.7-38.1v-.5c0-11.3,8.4-22.9,24.2-22.9s16.6,4.3,23.5,13.1l-10.4,9.7c-4.7-6.2-8.5-8.4-13.2-8.4-8.4,0-10.4,3.1-10.4,9,.1,13.3,37.7,14.4,37.7,38s-14.5,27.4-30.7,27.4-18.5-4.1-25.5-13.1h0Z"/>
  <path class="st3" d="M213.5,160.4h10.4v2.6h-13.4v-18.8h3v16.2Z"/>
  <path class="st3" d="M233.9,153.9c0-.8-.2-1.6-.8-2.2-.6-.5-1.4-.8-2.1-.8s-1.5.2-2.2.6c-.7.5-1.1,1.2-1.3,1.9l-2.6-1.1c.4-1.2,1.1-2.1,2.1-2.8,1.2-.7,2.6-1.1,4.1-1.1s2.1.2,3,.6c.8.3,1.5.9,2.1,1.7.5.9.8,1.8.8,2.8v6.4c0,.5.3,1,.8,1.1h.3c.3,0,.7,0,1-.1l-.2,2.1c-.5.2-1.1.3-1.7.3s-1.1-.1-1.7-.3c-.5-.2-.9-.6-1.1-1-.3-.5-.4-1.1-.4-1.7v-.2h.6c-.2.7-.5,1.3-1.1,1.8-.5.5-1.2.9-1.9,1.1-.7.2-1.4.4-2.1.4s-1.6-.1-2.4-.4c-1.4-.5-2.4-1.9-2.3-3.4,0-1,.3-1.9,1-2.6.8-.7,1.8-1.2,2.9-1.4l5.5-1.1v2.1l-4,.8c-.6,0-1.2.3-1.8.7-.4.3-.6.8-.6,1.2s.2,1,.6,1.3c.5.3,1.1.5,1.7.5s.9,0,1.4-.2c.4-.1.8-.3,1.2-.6s.6-.6.8-1c.2-.5.3-1,.3-1.5v-3.9h0Z"/>
  <path class="st3" d="M248.1,163.2c-.8,0-1.6-.2-2.3-.5s-1.3-.8-1.8-1.3c-.5-.6-.8-1.2-1.1-2l.4-.5-.2,4h-2.7v-20.6h3.1v10l-.3-.5c.4-1,1-1.8,1.8-2.4.9-.7,2-1,3.2-1s2.2.3,3.1.9c1,.6,1.8,1.5,2.3,2.5.6,1.3.9,2.6.8,4,0,1.4-.2,2.7-.8,4-.5,1-1.3,1.9-2.3,2.5s-2.1.9-3.2.9h0ZM247.5,160.8c1.1,0,2.2-.4,2.9-1.3.7-.9,1-2.1,1-3.6s-.3-2.7-1-3.6c-.7-.9-1.8-1.4-2.9-1.3-.7,0-1.5.2-2.1.6-.6.4-1.1,1-1.4,1.7-.4.8-.5,1.7-.5,2.6s.1,1.8.5,2.6c.3.7.8,1.3,1.4,1.7.6.4,1.3.6,2.1.6Z"/>
  <path class="st3" d="M263.1,148.4c1.3,0,2.5.3,3.7.9,1.1.6,1.9,1.5,2.5,2.5,1.2,2.5,1.2,5.4,0,7.9-.6,1.1-1.4,2-2.5,2.5-2.3,1.2-5,1.2-7.3,0-1.1-.6-1.9-1.5-2.5-2.5-1.2-2.5-1.2-5.4,0-7.9.6-1.1,1.4-2,2.5-2.5,1.1-.6,2.4-.9,3.7-.9h-.1ZM263.1,150.9c-.8,0-1.5.2-2.2.6-.6.4-1.1,1-1.4,1.7-.6,1.8-.6,3.7,0,5.5.3.7.8,1.3,1.4,1.7.7.4,1.4.6,2.2.6s1.5-.2,2.2-.6c.6-.4,1.1-1,1.4-1.7.6-1.8.6-3.7,0-5.5-.3-.7-.8-1.3-1.4-1.7s-1.4-.6-2.2-.6Z"/>
  <path class="st3" d="M272.7,162.9v-14.2h2.6l.3,2.6c.3-.9.9-1.6,1.7-2.1.8-.5,1.8-.8,2.8-.7h.9c.2,0,.5.1.7.2l-.4,2.7c-.2,0-.5-.1-.7-.2h-1c-.6,0-1.2.2-1.7.5-.6.3-1.1.8-1.4,1.4-.4.7-.6,1.6-.6,2.4v7.5h-3.2Z"/>
  <path class="st3" d="M291,153.9c0-.8-.2-1.6-.8-2.2-.6-.5-1.4-.8-2.1-.8s-1.5.2-2.2.6c-.7.5-1.1,1.2-1.3,1.9l-2.6-1.1c.4-1.2,1.1-2.1,2.1-2.8,1.2-.7,2.6-1.1,4.1-1.1s2.1.2,3,.6c.8.3,1.6.9,2.1,1.7.5.9.8,1.8.8,2.8v6.4c0,.5.3,1,.8,1.1h.3c.3,0,.7,0,1-.1l-.2,2.1c-.5.2-1.1.3-1.7.3s-1.1,0-1.7-.3c-.5-.2-.9-.6-1.1-1-.3-.5-.4-1.1-.4-1.7v-.2h.6c-.1.7-.5,1.3-1,1.8s-1.2.9-1.8,1.1c-.7.2-1.4.4-2.1.4s-1.6-.1-2.4-.4c-1.4-.5-2.4-1.9-2.3-3.4,0-1,.3-1.9,1-2.6.8-.7,1.8-1.2,3-1.4l5.5-1.1v2.1l-4,.8c-.6,0-1.2.3-1.8.7-.4.3-.6.8-.6,1.2s.2,1,.6,1.3c.5.3,1.1.5,1.7.5s.9,0,1.4-.2c.4-.1.8-.3,1.2-.6.4-.3.6-.6.8-1,.2-.5.3-1,.3-1.5v-3.9h-.2Z"/>
  <path class="st3" d="M306.1,148.8v2.4h-10.7v-2.4h10.7ZM301.2,144.6v14.1c0,.6.2,1.1.6,1.5.4.3,1,.5,1.5.5s.9,0,1.3-.2.7-.4,1.1-.7l.7,2.2c-.5.4-1,.7-1.6.9-.7.2-1.4.3-2.1.3s-1.5-.1-2.2-.4c-.7-.2-1.2-.7-1.6-1.3-.4-.7-.6-1.5-.6-2.3v-13.8l3-.9h0Z"/>
  <path class="st3" d="M313.9,148.4c1.3,0,2.5.3,3.7.9,1.1.6,1.9,1.5,2.5,2.5,1.2,2.5,1.2,5.4,0,7.9-.6,1.1-1.4,2-2.5,2.5-2.3,1.2-5,1.2-7.3,0-1.1-.6-1.9-1.5-2.5-2.5-1.2-2.5-1.2-5.4,0-7.9.6-1.1,1.4-2,2.5-2.5,1.1-.6,2.4-.9,3.7-.9h-.1ZM313.9,150.9c-.8,0-1.5.2-2.2.6-.6.4-1.1,1-1.4,1.7-.6,1.8-.6,3.7,0,5.5.3.7.8,1.3,1.4,1.7,1.3.8,3,.8,4.3,0,.6-.4,1.1-1,1.4-1.7.6-1.8.6-3.7,0-5.5-.3-.7-.8-1.3-1.4-1.7s-1.4-.6-2.2-.6h.1Z"/>
  <path class="st3" d="M323.4,162.9v-14.2h2.6l.3,2.6c.3-.9.9-1.6,1.7-2.1.8-.5,1.8-.8,2.8-.7h.9c.2,0,.5.1.7.2l-.4,2.7c-.2,0-.5-.1-.7-.2h-1c-.6,0-1.2.2-1.7.5-.6.3-1.1.8-1.4,1.4-.4.7-.6,1.6-.6,2.4v7.5h-3.2Z"/>
  <path class="st3" d="M335.2,146.4c-.6,0-1.1-.1-1.5-.5s-.6-.9-.5-1.4c0-.5.2-1,.5-1.4.4-.4,1-.5,1.5-.5s1.1.1,1.5.5.6.9.5,1.4c0,.5-.2,1-.5,1.4-.4.4-.9.5-1.5.5ZM336.7,148.8v14.2h-3v-14.2h3Z"/>
  <path class="st3" d="M346.2,148.4c1.3,0,2.5.3,3.7.9,1.1.6,1.9,1.5,2.5,2.5,1.2,2.5,1.2,5.4,0,7.9-.6,1.1-1.4,2-2.5,2.5-2.3,1.2-5,1.2-7.3,0-1.1-.6-1.9-1.5-2.5-2.5-1.2-2.5-1.2-5.4,0-7.9.6-1.1,1.4-2,2.5-2.5,1.1-.6,2.4-.9,3.7-.9h-.1ZM346.2,150.9c-.8,0-1.5.2-2.2.6-.6.4-1.1,1-1.4,1.7-.6,1.8-.6,3.7,0,5.5.3.7.8,1.3,1.4,1.7.7.4,1.4.6,2.2.6s1.5-.2,2.2-.6c.6-.4,1.1-1,1.4-1.7.6-1.8.6-3.7,0-5.5-.3-.7-.8-1.3-1.4-1.7s-1.4-.6-2.2-.6Z"/>
  <path class="st3" d="M369.2,163.2c-1.1,0-2.2-.3-3.2-.9-1-.6-1.8-1.5-2.3-2.5-.6-1.2-.9-2.6-.8-4,0-1.4.3-2.8.9-4,.5-1,1.4-1.9,2.4-2.5s2.1-.9,3.2-.9c2.2,0,4.2,1.4,4.8,3.6l-.3.3v-10h3.1v20.6h-2.7l-.2-3.9h.4c-.1.8-.4,1.6-.9,2.2-.5.6-1.1,1.1-1.9,1.4-.7.3-1.5.5-2.3.5h-.2ZM369.7,160.8c.8,0,1.5-.2,2.1-.6.6-.4,1.1-1.1,1.4-1.8.3-.9.5-1.8.5-2.7s-.1-1.7-.5-2.5c-.3-.7-.8-1.2-1.4-1.7-1.6-1-3.7-.7-5,.7-.7.9-1.1,2.1-1.1,3.6s.3,2.7,1,3.6c.7.9,1.7,1.4,2.9,1.3h.1Z"/>
  <path class="st3" d="M386.4,163.2c-1.3,0-2.6-.3-3.8-.9-1.1-.6-1.9-1.5-2.5-2.5-1.2-2.5-1.2-5.4,0-7.9.6-1.1,1.4-2,2.5-2.5,1.1-.6,2.4-.9,3.6-.9s2.5.3,3.5.9c1,.5,1.7,1.4,2.2,2.3.5,1,.8,2.2.8,3.4v1.8h-11.4v-2.3h10.1l-1.5.5c0-1.3-.3-2.3-1-3s-1.7-1.1-2.6-1c-.8,0-1.5.2-2.1.6-.6.4-1.1,1-1.4,1.7-.3.9-.5,1.8-.5,2.7s.1,1.8.5,2.7c.3.7.8,1.3,1.5,1.7s1.4.6,2.2.6,1.6-.1,2.3-.5c.6-.4,1.1-.9,1.4-1.5l2.4,1.1c-.3.7-.8,1.3-1.4,1.8s-1.3.9-2.1,1.2c-.8.3-1.7.4-2.6.4v-.4Z"/>
  <path class="st3" d="M403.5,162.9v-18.8h13.6v2.6h-10.6v5.4h8.3v2.6h-8.3v5.6h11v2.6h-14Z"/>
  <path class="st3" d="M419.7,162.9v-14.2h2.7l.2,3.7-.4-.4c.2-.8.6-1.4,1.2-2s1.1-.9,1.8-1.2c.7-.3,1.5-.4,2.2-.4s1.9.2,2.7.6,1.5,1,1.9,1.8c.5.9.7,1.9.7,3v9.2h-3v-8.3c0-1.4-.3-2.4-.9-2.9-.6-.6-1.4-.8-2.2-.8s-1.3.2-1.8.4c-.6.3-1.1.8-1.5,1.4-.4.8-.6,1.7-.6,2.6v7.6h-3Z"/>
  <path class="st3" d="M441.4,163.2c-1.3,0-2.7-.3-3.9-.8-1.1-.5-2.1-1.3-2.8-2.3l2.1-1.8c.4.8,1,1.4,1.8,1.9.9.5,1.8.7,2.8.7s1.4-.1,2.1-.5,1-1.3.6-2c0,0-.1-.2-.2-.3-.4-.3-.8-.6-1.4-.6l-3-.6c-1.5-.3-2.6-.8-3.2-1.5-.7-.7-1-1.6-1-2.6s.2-1.5.7-2.2,1.2-1.3,2-1.6c1-.4,2.1-.6,3.2-.6s2.5.2,3.6.8c1,.5,1.8,1.2,2.3,2.1l-2.1,1.8c-.3-.7-.9-1.3-1.6-1.7s-1.4-.6-2.2-.6-1.1,0-1.6.2c-.4.1-.7.3-1,.6-.2.3-.3.6-.3.9s.1.7.4,1c.4.4,1,.6,1.5.7l3.2.7c1.4.3,2.3.7,2.9,1.4.6.6.9,1.5.8,2.3,0,.9-.2,1.7-.7,2.4s-1.2,1.3-2.1,1.6c-1,.4-2.1.6-3.1.6h.2Z"/>
  <path class="st3" d="M457.9,153.9c0-.8-.2-1.6-.8-2.2-.6-.5-1.4-.8-2.1-.8s-1.5.2-2.2.6c-.7.5-1.1,1.2-1.3,1.9l-2.6-1.1c.4-1.2,1.1-2.1,2.1-2.8,1.2-.7,2.6-1.1,4.1-1.1s2.1.2,3,.6c.8.3,1.5.9,2.1,1.7.5.9.8,1.8.8,2.8v6.4c0,.5.3,1,.8,1.1h.3c.3,0,.7,0,1-.1l-.2,2.1c-.5.2-1.1.3-1.7.3s-1.1-.1-1.7-.3c-.5-.2-.9-.6-1.1-1-.3-.5-.4-1.1-.4-1.7v-.2h.6c-.1.7-.5,1.3-1.1,1.8-.5.5-1.2.9-1.9,1.1-.7.2-1.4.4-2.1.4s-1.6-.1-2.4-.4c-1.4-.5-2.4-1.9-2.3-3.4,0-1,.3-1.9,1-2.6.8-.7,1.8-1.2,2.9-1.4l5.5-1.1v2.1l-4,.8c-.6,0-1.2.3-1.8.7-.4.3-.6.8-.6,1.2s.2,1,.6,1.3c.5.3,1.1.5,1.7.5s.9,0,1.4-.2c.4-.1.8-.3,1.2-.6.4-.3.6-.6.8-1,.2-.5.3-1,.3-1.5v-3.9h.1Z"/>
  <path class="st3" d="M476.2,148.8l-6.2,15.9c-.3.9-.8,1.8-1.3,2.6-.4.6-1,1.1-1.7,1.4-.7.3-1.4.4-2.2.4s-1.3,0-1.9-.3c-.5-.2-1.1-.4-1.5-.7l.7-2.4c.3.3.7.5,1.2.7.4.2.9.2,1.3.2s1-.1,1.4-.4c.5-.4.9-1,1.1-1.7l.6-1.5-1.5-3.5-4.5-10.8h3.4l3.2,8.9.8,2.7.9-2.9,3-8.7h3.2Z"/>
  <path class="st3" d="M483.5,148.4c1.3,0,2.5.3,3.7.9,1.1.6,1.9,1.5,2.5,2.5,1.2,2.5,1.2,5.4,0,7.9-.6,1.1-1.4,2-2.5,2.5-2.3,1.2-5,1.2-7.3,0-1.1-.6-1.9-1.5-2.5-2.5-1.2-2.5-1.2-5.4,0-7.9.6-1.1,1.4-2,2.5-2.5,1.1-.6,2.4-.9,3.7-.9h-.1ZM483.5,150.9c-.8,0-1.5.2-2.2.6-.6.4-1.1,1-1.4,1.7-.6,1.8-.6,3.7,0,5.5.3.7.8,1.3,1.4,1.7.7.4,1.4.6,2.2.6s1.5-.2,2.2-.6c.6-.4,1.1-1,1.4-1.7.6-1.8.6-3.7,0-5.5-.3-.7-.8-1.3-1.4-1.7s-1.4-.6-2.2-.6Z"/>
  <path class="st3" d="M498.4,163.2c-1.3,0-2.7-.3-3.9-.8-1.1-.5-2.1-1.3-2.8-2.3l2.1-1.8c.4.8,1,1.4,1.8,1.9.9.5,1.8.7,2.8.7s1.4-.1,2.1-.5,1-1.3.6-2c0,0-.1-.2-.2-.3-.4-.3-.8-.6-1.4-.6l-3-.6c-1.5-.3-2.6-.8-3.2-1.5-.7-.7-1-1.6-1-2.6s.2-1.5.7-2.2,1.2-1.3,2-1.6c1-.4,2.1-.6,3.2-.6s2.5.2,3.6.8c1,.5,1.8,1.2,2.3,2.1l-2.1,1.8c-.3-.7-.9-1.3-1.6-1.7s-1.4-.6-2.2-.6-1.1,0-1.6.2c-.4.1-.7.3-1,.6-.2.3-.3.6-.3.9s.1.7.4,1c.4.4,1,.6,1.5.7l3.2.7c1.4.3,2.3.7,2.9,1.4.6.6.9,1.5.8,2.3,0,.9-.2,1.7-.7,2.4s-1.2,1.3-2.1,1.6c-1,.4-2.1.6-3.1.6h.2Z"/>
  <path class="st3" d="M226.4,203.1v-20.2h2.7l.2,4-.4-.5c.2-.7.6-1.4,1.1-2s1.1-1,1.8-1.3,1.5-.5,2.3-.5,2.2.3,3.2.9c1,.6,1.7,1.5,2.2,2.5,1.1,2.5,1.1,5.4,0,8-.5,1-1.3,1.9-2.3,2.5s-2.1.9-3.2.9-2.2-.3-3.1-1c-.8-.6-1.5-1.5-1.8-2.4l.3-.5v9.6h-3ZM233.4,194.9c1.1,0,2.2-.4,2.9-1.3.7-.9,1-2.1,1-3.6s-.3-2.7-1-3.6c-.7-.9-1.7-1.4-2.8-1.3-.7,0-1.5.2-2.1.6-.6.4-1.1,1-1.4,1.7-.4.8-.5,1.7-.5,2.6s.2,1.8.5,2.6c.3.7.8,1.3,1.4,1.7.6.4,1.3.6,2.1.6h0Z"/>
  <path class="st3" d="M251.1,187.9c0-.8-.2-1.6-.8-2.2-.6-.5-1.4-.8-2.1-.8s-1.5.2-2.2.6c-.7.5-1.1,1.1-1.3,1.9l-2.6-1.1c.4-1.2,1.1-2.1,2.1-2.8,1.2-.7,2.6-1.1,4.1-1.1s2.1.2,3,.6c.8.3,1.5.9,2.1,1.7.5.9.8,1.8.8,2.8v6.4c0,.5.3,1,.8,1.1h.3c.3,0,.7,0,1-.1l-.2,2.1c-.5.2-1.1.3-1.7.3s-1.1-.1-1.7-.3c-.5-.2-.9-.6-1.1-1-.3-.5-.4-1.1-.4-1.7v-.2h.6c-.1.7-.5,1.3-1.1,1.8-.5.5-1.2.9-1.9,1.1-.7.2-1.4.4-2.1.4s-1.6-.1-2.4-.4c-1.4-.5-2.4-1.9-2.3-3.4,0-1,.3-1.9,1-2.6.8-.7,1.8-1.2,2.9-1.4l5.5-1.1v2.1l-4,.8c-.6,0-1.2.3-1.8.7-.4.3-.6.8-.6,1.2s.2,1,.6,1.3c.5.3,1.1.5,1.7.5s.9,0,1.4-.2c.4-.1.8-.3,1.2-.6s.6-.6.8-1c.2-.5.3-1,.3-1.5v-3.9h.1Z"/>
  <path class="st3" d="M257.7,197.2v-14.2h2.6l.3,2.6c.3-.9.9-1.6,1.7-2.1.8-.5,1.8-.8,2.8-.7h.9c.2,0,.5.1.7.2l-.4,2.7c-.2,0-.5-.1-.7-.2h-1c-.6,0-1.2.2-1.7.5-.6.3-1.1.8-1.4,1.4-.4.7-.6,1.6-.6,2.4v7.5h-3.2Z"/>
  <path class="st3" d="M276,187.9c0-.8-.2-1.6-.8-2.2-.6-.5-1.4-.8-2.1-.8s-1.5.2-2.2.6c-.7.5-1.1,1.2-1.3,1.9l-2.6-1.1c.4-1.2,1.1-2.1,2.1-2.8,1.2-.7,2.6-1.1,4.1-1.1s2.1.2,3,.6c.8.3,1.6.9,2.1,1.7.5.9.8,1.8.8,2.8v6.4c0,.5.3,1,.8,1.1h.3c.3,0,.7,0,1-.1l-.2,2.1c-.5.2-1.1.3-1.7.3s-1.1-.1-1.7-.3c-.5-.2-.9-.6-1.1-1-.3-.5-.4-1.1-.4-1.7v-.2h.6c-.2.7-.5,1.3-1.1,1.8-.5.5-1.2.9-1.8,1.1-.7.2-1.4.4-2.1.4s-1.6-.1-2.4-.4c-1.4-.5-2.4-1.9-2.3-3.4,0-1,.3-1.9,1-2.6.8-.7,1.8-1.2,2.9-1.4l5.5-1.1v2.1l-4,.8c-.6,0-1.3.3-1.8.6-.4.3-.6.8-.6,1.2s.2,1,.6,1.3c.5.3,1.1.5,1.7.5s.9,0,1.4-.2c.4-.1.8-.3,1.2-.6.4-.3.6-.6.8-1,.2-.5.3-1,.3-1.5v-3.8h0Z"/>
  <path class="st3" d="M297.6,178.4c1.2,0,2.4.2,3.5.7.9.4,1.7,1.1,2.3,2,1.1,2,1.1,4.3,0,6.3-.6.9-1.4,1.6-2.3,2-1.1.5-2.3.7-3.5.7h-4.2v7h-3v-18.8h7.2ZM297.1,187.6c1.3,0,2.3-.3,3-.8.7-.6,1-1.5,1-2.4s-.3-1.8-1-2.5c-.6-.6-1.7-.8-3-.8h-3.7v6.6h3.7Z"/>
  <path class="st3" d="M314.6,187.9c0-.8-.2-1.6-.8-2.2-.6-.5-1.4-.8-2.1-.8s-1.5.2-2.2.6c-.7.5-1.1,1.2-1.3,1.9l-2.6-1.1c.4-1.2,1.1-2.1,2.1-2.8,1.2-.7,2.6-1.1,4.1-1.1s2.1.2,3,.6c.8.3,1.6.9,2.1,1.7.5.9.8,1.8.8,2.8v6.4c0,.5.3,1,.8,1.1h.3c.3,0,.7,0,1-.1l-.2,2.1c-.5.2-1.1.3-1.7.3s-1.1-.1-1.7-.3c-.5-.2-.9-.6-1.1-1-.3-.5-.4-1.1-.4-1.7v-.2h.6c-.2.7-.5,1.3-1.1,1.8-.5.5-1.2.9-1.9,1.1-.7.2-1.4.4-2.1.4s-1.6-.1-2.4-.4c-1.4-.5-2.4-1.9-2.3-3.4,0-1,.3-1.9,1-2.6.8-.7,1.8-1.2,2.9-1.4l5.5-1.1v2.1l-4,.8c-.6,0-1.2.3-1.8.7-.4.3-.6.8-.6,1.2s.2,1,.6,1.3c.5.3,1.1.5,1.7.5s.9,0,1.4-.2c.4-.1.8-.3,1.2-.6.4-.3.6-.6.8-1,.2-.5.3-1,.3-1.5v-3.9h.1Z"/>
  <path class="st3" d="M321.2,197.2v-14.2h2.7l.2,3.7-.4-.4c.2-.8.6-1.4,1.2-2s1.1-.9,1.8-1.2c.7-.2,1.5-.4,2.2-.4s1.9.2,2.7.6,1.5,1,1.9,1.8c.5.9.8,1.9.7,3v9.2h-3v-8.3c0-1.4-.3-2.4-.9-2.9-.6-.6-1.4-.8-2.2-.8s-1.3.2-1.8.4c-.6.3-1.1.8-1.5,1.4-.4.8-.6,1.7-.6,2.6v7.6h-3Z"/>
  <path class="st3" d="M343.7,197.4c-1.3,0-2.6-.3-3.8-.9-1.1-.6-2-1.5-2.5-2.5-1.2-2.5-1.2-5.4,0-7.9.6-1.1,1.4-2,2.5-2.5,1.1-.6,2.4-.9,3.6-.9s2.5.3,3.5.9c.9.5,1.7,1.4,2.2,2.3.5,1,.8,2.2.8,3.4v1.8h-11.4v-2.3h10.1l-1.5.5c0-1.3-.3-2.3-1-3s-1.7-1.1-2.6-1c-.8,0-1.5.2-2.1.6-.6.4-1.1,1-1.4,1.7-.3.9-.5,1.8-.5,2.7s.1,1.8.5,2.7c.3.7.8,1.3,1.5,1.7s1.4.6,2.2.6,1.6-.2,2.3-.5c.6-.4,1.1-.9,1.4-1.5l2.4,1.1c-.3.7-.8,1.3-1.4,1.8s-1.3.9-2.1,1.2c-.8.3-1.7.4-2.6.4v-.4Z"/>
  <path class="st3" d="M355.4,176.4v16.7c0,.5,0,1,.4,1.5.3.3.8.5,1.2.4h.9c.3,0,.6-.2.9-.3l-.3,2.3c-.4.2-.7.3-1.1.4-.4,0-.8.1-1.2.1-1.3,0-2.2-.3-2.8-1s-.9-1.7-.9-3v-16.9h3v-.2Z"/>
  <path class="st3" d="M366.2,197.4c-1.3,0-2.6-.3-3.8-.9-1.1-.6-2-1.5-2.5-2.5-1.2-2.5-1.2-5.4,0-7.9.6-1.1,1.4-2,2.5-2.5,1.1-.6,2.4-.9,3.6-.9s2.5.3,3.5.9c.9.5,1.7,1.4,2.2,2.3.5,1,.8,2.2.8,3.4v1.8h-11.4v-2.3h10.1l-1.5.5c0-1.3-.3-2.3-1-3s-1.7-1.1-2.6-1c-.8,0-1.5.2-2.1.6-.6.4-1.1,1-1.4,1.7-.3.9-.5,1.8-.5,2.7s.2,1.8.5,2.7c.3.7.8,1.3,1.4,1.7.7.4,1.4.6,2.2.6s1.6-.2,2.3-.5c.6-.4,1.1-.9,1.4-1.5l2.4,1.1c-.3.7-.8,1.3-1.4,1.8s-1.3.9-2.1,1.2c-.8.3-1.7.4-2.6.4v-.4Z"/>
  <path class="st3" d="M380.4,197.4c-1.3,0-2.7-.3-3.9-.8-1.1-.5-2.1-1.3-2.8-2.3l2.1-1.8c.4.8,1,1.4,1.8,1.9.9.5,1.8.7,2.8.7s1.4-.1,2.1-.5,1-1.3.6-2c0,0-.1-.2-.2-.3-.4-.3-.8-.6-1.4-.6l-3-.6c-1.5-.3-2.6-.8-3.2-1.5-.7-.7-1-1.6-1-2.6s.2-1.5.7-2.2,1.2-1.3,2-1.6c1-.4,2.1-.6,3.2-.6s2.5.2,3.6.8c1,.5,1.8,1.2,2.3,2.1l-2.1,1.8c-.3-.7-.9-1.3-1.6-1.7s-1.4-.6-2.2-.6-1.1,0-1.6.2c-.4.1-.7.3-1,.6-.2.3-.3.6-.3.9s.1.7.4,1c.4.4,1,.6,1.5.7l3.2.7c1.4.3,2.3.7,2.9,1.3s.9,1.5.8,2.3c0,.9-.2,1.7-.7,2.4s-1.2,1.3-2.1,1.6c-1,.4-2.1.6-3.1.6h.2Z"/>
  <path class="st3" d="M403.4,178.1c1.5,0,3,.3,4.4,1,1.3.7,2.3,1.6,3.1,2.8l-2.1,2c-.6-1-1.4-1.8-2.4-2.4-1-.5-2.1-.8-3.2-.7-.8,0-1.5.1-2.2.4-.5.2-1,.5-1.3,1-.3.4-.4.9-.4,1.4s.2,1.1.6,1.5,1.2.8,2.3,1l3.8.9c1.8.4,3.1,1,3.9,1.8s1.2,2,1.1,3.1c0,1.1-.3,2.1-.9,3-.7.9-1.6,1.6-2.6,2-1.2.5-2.6.7-3.9.7s-2.4-.2-3.6-.5c-1-.3-1.9-.8-2.8-1.4-.8-.6-1.4-1.2-2-2l2.1-2.1c.4.7.9,1.3,1.5,1.8s1.3.9,2.1,1.2c.9.3,1.8.4,2.7.4s1.5,0,2.3-.3c.6-.2,1.1-.5,1.5-.9.3-.4.5-.9.5-1.5s-.2-1.1-.6-1.4c-.4-.4-1.1-.7-2.1-1l-4.1-.9c-1-.2-1.9-.5-2.8-1.1-1.4-.8-2.2-2.3-2.2-3.9s.3-2,.9-2.9,1.5-1.6,2.5-2.1,2.6-.8,3.9-.8h0Z"/>
  <path class="st3" d="M419.6,182.6c1.3,0,2.5.3,3.7.9,1.1.6,1.9,1.5,2.5,2.5,1.2,2.5,1.2,5.4,0,7.9-.6,1.1-1.4,2-2.5,2.5-2.3,1.2-5,1.2-7.3,0-1.1-.6-1.9-1.5-2.5-2.5-1.2-2.5-1.2-5.4,0-7.9.6-1.1,1.4-2,2.5-2.5,1.1-.6,2.4-.9,3.7-.9h-.1ZM419.6,184.9c-.8,0-1.5.2-2.2.6-.6.4-1.1,1-1.4,1.7-.6,1.8-.6,3.7,0,5.5.3.7.8,1.3,1.4,1.7.7.4,1.4.6,2.2.6s1.5-.2,2.2-.6c.6-.4,1.1-1,1.4-1.7.6-1.8.6-3.7,0-5.5-.3-.7-.8-1.3-1.4-1.7s-1.4-.6-2.2-.6h0Z"/>
  <path class="st3" d="M432.1,176.4v16.7c0,.5,0,1,.4,1.5.3.3.8.5,1.2.4h.9c.3,0,.6-.2.9-.3l-.3,2.3c-.4.2-.7.3-1.1.4-.4,0-.8.1-1.2.1-1.3,0-2.2-.3-2.8-1s-.9-1.7-.9-3v-16.9h3v-.2Z"/>
  <path class="st3" d="M444.9,187.9c0-.8-.2-1.6-.8-2.2-.6-.5-1.4-.8-2.1-.8s-1.5.2-2.2.6c-.7.5-1.1,1.2-1.3,1.9l-2.6-1.1c.4-1.2,1.1-2.1,2.1-2.8,1.2-.7,2.6-1.1,4.1-1.1s2.1.2,3,.6c.8.3,1.6.9,2.1,1.7.5.9.8,1.8.8,2.8v6.4c0,.5.3,1,.8,1.1h.3c.3,0,.7,0,1-.1l-.2,2.1c-.5.2-1.1.3-1.7.3s-1.1-.1-1.7-.3c-.5-.2-.9-.6-1.1-1-.3-.5-.4-1.1-.4-1.7v-.2h.6c-.1.7-.5,1.3-1.1,1.8-.5.5-1.2.9-1.8,1.1-.7.2-1.4.4-2.1.4s-1.6-.1-2.4-.4c-1.4-.5-2.4-1.9-2.3-3.4,0-1,.3-1.9,1-2.6.8-.7,1.8-1.2,3-1.4l5.5-1.1v2.1l-4,.8c-.6,0-1.2.3-1.8.7-.4.3-.6.8-.6,1.2s.2,1,.6,1.3c.5.3,1.1.5,1.7.5s.9,0,1.4-.2c.4-.1.8-.3,1.2-.6.4-.3.6-.6.8-1,.2-.5.3-1,.3-1.5v-3.9h0Z"/>
  <path class="st3" d="M451.5,197.2v-14.2h2.6l.3,2.6c.3-.9.9-1.6,1.7-2.1.8-.5,1.8-.8,2.8-.7h.9c.2,0,.5.1.7.2l-.4,2.7c-.2,0-.5-.1-.7-.2h-1c-.6,0-1.2.2-1.7.5-.6.3-1.1.8-1.4,1.4-.4.7-.6,1.6-.6,2.4v7.5h-3.2Z"/>
  <path class="st3" d="M467.7,197.4c-1.3,0-2.6-.3-3.8-.9-1.1-.6-1.9-1.5-2.5-2.5-1.2-2.5-1.2-5.4,0-7.9.6-1.1,1.4-2,2.5-2.5,1.1-.6,2.4-.9,3.6-.9s2.5.3,3.5.9c1,.5,1.7,1.4,2.2,2.3.5,1,.8,2.2.8,3.4v1.8h-11.4v-2.3h10.1l-1.5.5c0-1.3-.3-2.3-1-3s-1.7-1.1-2.6-1c-.8,0-1.5.2-2.1.6-.6.4-1.1,1-1.4,1.7-.3.9-.5,1.8-.5,2.7s.1,1.8.5,2.7c.3.7.8,1.3,1.5,1.7s1.4.6,2.2.6,1.6-.1,2.3-.5c.6-.4,1.1-.9,1.4-1.5l2.4,1.1c-.3.7-.8,1.3-1.4,1.8s-1.3.9-2.1,1.2c-.8.3-1.7.4-2.6.4v-.4Z"/>
  <path class="st3" d="M482,197.4c-1.3,0-2.7-.3-3.9-.8-1.1-.5-2.1-1.3-2.8-2.3l2.1-1.8c.4.8,1,1.4,1.8,1.9.9.5,1.8.7,2.8.7s1.4-.1,2.1-.5,1-1.3.6-2c0,0-.1-.2-.2-.3-.4-.3-.8-.6-1.4-.6l-3-.6c-1.5-.3-2.6-.8-3.2-1.5-.7-.7-1-1.6-1-2.6s.2-1.5.7-2.2,1.2-1.3,2-1.6c1-.4,2.1-.6,3.2-.6s2.5.2,3.6.8c1,.5,1.8,1.2,2.3,2.1l-2.1,1.8c-.3-.7-.9-1.3-1.6-1.7s-1.4-.6-2.2-.6-1.1,0-1.6.2c-.4.1-.7.3-1,.6-.2.3-.3.6-.3.9s.1.7.4,1c.4.4,1,.6,1.5.7l3.2.7c1.4.3,2.3.7,2.9,1.3s.8,1.5.8,2.3-.2,1.7-.7,2.4-1.2,1.3-2.1,1.6c-1,.4-2.1.6-3.1.6h.2Z"/>
  <line class="st2" x1="209.2" y1="126.2" x2="387" y2="126.2"/>
  <path class="st3" d="M396.6,121.2c.8,0,1.6,0,2.3.4.7.3,1.3.7,1.8,1.2l-1.2,1.6c-.4-.4-.8-.7-1.3-1-.5-.2-1.1-.3-1.6-.3s-.6,0-.9,0c-.2,0-.4.2-.5.3,0,0-.1.3-.1.5s.1.4.3.5c.3.2.6.3.9.4l1.6.4c.8,0,1.5.5,2.1,1,.5.4.7,1.1.7,1.7s-.2,1.2-.5,1.7c-.4.5-.9.8-1.4,1.1-.7.2-1.4.4-2.1.4s-1.2,0-1.8-.2c-.5-.1-1.1-.3-1.6-.6-.4-.2-.8-.5-1.2-.9l1.2-1.7c.3.3.6.5.9.7.4.2.7.4,1.2.5.4.1.8.2,1.3.2h.8c.2,0,.4-.2.5-.3s.2-.3.2-.5,0-.4-.2-.5c-.2-.2-.5-.3-.8-.4l-1.8-.4c-.5,0-1-.3-1.4-.5s-.7-.5-1-.8c-.3-.4-.4-.9-.4-1.3,0-.6.2-1.1.5-1.6.4-.5.9-.9,1.4-1.1.7-.3,1.4-.4,2.2-.4v-.2Z"/>
  <path class="st3" d="M401.5,130.9v-9.5h7.4v1.9h-5v1.9h3.9v1.8h-3.9v2h5.1v1.9h-7.6.1Z"/>
  <path class="st3" d="M418.5,121.5v9.5h-2.8l-3-5.2-.7-1.4h0v6.6h-2.2v-9.5h2.8l3,5.2.7,1.4h0v-6.6h2.2Z"/>
  <path class="st3" d="M418.9,130.9l3.4-9.5h3l3.3,9.5h-2.6l-1.9-6.1-.4-1.5h0l-.4,1.5-1.9,6.1h-2.5ZM421.1,128.9v-1.7h5.3v1.7h-5.3Z"/>
  <path class="st3" d="M447.2,128.2c-.2.6-.5,1.2-.9,1.7-.4.4-.9.7-1.4.9-.6.2-1.2.3-1.8.3-.9,0-1.7-.2-2.5-.6-.7-.4-1.3-1-1.6-1.7-.7-1.7-.7-3.6,0-5.3.4-.7.9-1.3,1.6-1.7.8-.4,1.6-.6,2.5-.6s1.2,0,1.8.3c.5.2,1,.5,1.4.9s.7.9.8,1.5l-2.2.9c0-.5-.3-.9-.7-1.2-.3-.2-.7-.3-1.2-.3-.9,0-1.7.5-1.9,1.3-.2.5-.3,1.1-.3,1.7s0,1.1.2,1.6c.1.4.4.8.7,1,.4.2.8.3,1.2.3s.8-.1,1.2-.4c.3-.3.6-.7.7-1.2l2.2.6h.2Z"/>
  <path class="st3" d="M448,130.9v-9.5h7.4v1.9h-5v1.9h3.9v1.8h-3.9v2h5.2v1.9h-7.6Z"/>
  <path class="st3" d="M456.4,130.9v-9.5h7.4v1.9h-5v1.9h3.9v1.8h-3.9v2h5.1v1.9h-7.6.1Z"/>
  <path class="st3" d="M472.7,121.5v1.9h-3.1v7.6h-2.5v-7.6h-3.1v-1.9s8.7,0,8.7,0Z"/>
  <line class="st2" x1="477.2" y1="126.2" x2="505.4" y2="126.2"/>
  <line class="st2" x1="431" y1="126.2" x2="435.2" y2="126.2"/>
</svg>